# xmcd
#
# Track frame offsets:
# 150
# 13788
# 25564
# 38535
# 55878
# 71141
# 87524
# 103420
# 117204
# 131163
#
# Disc length: 1936 seconds
#
#
# Revision: 0
# Processed by: cddbd v1.5.1PL2 Copyright (c) Steve Scherf et al.
# Submitted via: FreeRIP 2.944 
#
DISCID=86078e0a
DTITLE=Banda Lua Nua - Maceió
DYEAR=2004
DGENRE=Pop
TTITLE0=Vem pra Alagoas
TTITLE1=Ponta de Lapis
TTITLE2=Minha Sereia
TTITLE3=Maceió
TTITLE4=Guerreiro  - Folclore Alagoano
TTITLE5=Amei Amar Maceió
TTITLE6=Caminhos do Mar
TTITLE7=Tardes em Paripueira
TTITLE8=Minha Terra
TTITLE9=Beirando as Alagoas
EXTD=Forró do Bom !!!!!!!!!!!!!
EXTT0=Paulinho Medeiros - Cláudio Pinto
EXTT1=Marcus Maceio - Roberto Barbosa - André
EXTT2=Carlos Moura
EXTT3=Lourival Passos
EXTT4=Dominio Popular
EXTT5=C.Pinto/M.Maceió/L.França/F.Melo
EXTT6=Cláudio Pinto - Wilson Miranda
EXTT7=Marcus Maceió - Waldyr Luz
EXTT8=Marcus Maceió
EXTT9=C.Pinto/P.Medeiros/Max Denis
PLAYORDER=
